<?xml version="1.0" encoding="utf-8"?>
<!-- Generator: Adobe Illustrator 23.1.0, SVG Export Plug-In . SVG Version: 6.00 Build 0)  -->
<svg version="1.1" id="图层_1" xmlns="http://www.w3.org/2000/svg" xmlns:xlink="http://www.w3.org/1999/xlink" x="0px" y="0px"
	 viewBox="0 0 300 150" style="enable-background:new 0 0 300 150;" xml:space="preserve">
<style type="text/css">
	.st0{fill:none;}
	.st1{fill:#231815;}
	.st2{fill:#D70C18;}
	.st3{fill:#FFFFFF;}
</style>
<rect x="-453.83" y="-65.24" class="st0" width="898.58" height="898.58"/>
<g>
	<path class="st1" d="M204.05,31.81c-0.12,0.7-0.45,1.29-0.96,1.76c-0.52,0.48-1.09,0.72-1.7,0.72h-47.24l-10.29,37.88
		c-1.11,3.81-3.14,6.91-6.07,9.3c-2.93,2.4-6.22,3.64-9.86,3.72l13.82-50.9h-8.86l0.74-5.83c0.08-0.41,0.29-0.77,0.62-1.08
		c0.33-0.31,0.68-0.47,1.05-0.47h69.37L204.05,31.81z M127.92,85.25v-0.06V85.25z M187.74,46.57h-33.79l1.55-6.39h44.08
		c0.41,0,0.74,0.15,0.99,0.47c0.25,0.31,0.35,0.69,0.31,1.14l-4.84,36.52c-0.29,1.9-1.14,3.49-2.54,4.78
		c-1.44,1.24-3.08,1.86-4.9,1.86h-20.27c0.25-1.65,0.99-3.05,2.23-4.18c1.24-1.14,2.61-1.7,4.09-1.7h6.51
		c0.82,0,1.44-0.27,1.86-0.81c0.45-0.53,0.72-1.24,0.81-2.11L187.74,46.57z M168.34,84.94h-0.06V85L168.34,84.94z"/>
	<path class="st1" d="M227.61,31.94l0.68-4.96h16.18l-7.07,52.38c-0.21,1.65-0.99,3.06-2.36,4.22c-1.36,1.12-2.92,1.67-4.65,1.67
		h-17.11c-1.7,0-3.08-0.56-4.16-1.67c-1.03-1.16-1.43-2.56-1.18-4.22l7-52.38h11.41l-0.62,4.89l-0.06,0.06l-0.19,1.55v0.12
		l-2.54,18.78h6.69l2.73-20.45H227.61z M226,79.36l2.91-21.51h-6.7l-2.85,21.51c-0.04,0.37,0.04,0.62,0.25,0.74
		c0.2,0.13,0.5,0.19,0.87,0.19h4.28c0.37,0,0.66-0.06,0.86-0.19C225.83,79.98,225.95,79.74,226,79.36 M262.51,26.98h23.31
		l-7.01,52.14c-0.17,1.69-0.89,3.14-2.17,4.34c-1.24,1.2-2.67,1.8-4.28,1.8h-11.03l0.44-3.1c0.08-0.53,0.32-0.98,0.71-1.33
		c0.39-0.35,0.84-0.53,1.33-0.53h0.62c0.58,0,1.05-0.19,1.42-0.56c0.41-0.37,0.66-0.89,0.74-1.55l1.43-10.85h-12.34l-1.61,11.78
		c-0.21,1.69-0.95,3.14-2.23,4.34c-1.28,1.2-2.73,1.8-4.34,1.8h-6.45l7.69-58.27h12.34l-0.68,4.96l-0.19,1.55v0.12l-1.3,9.8h12.34
		l1.55-11.47h-10.98L262.51,26.98z M268.71,62.31l1.86-13.88h-12.34l-1.86,13.88H268.71z"/>
	<path class="st2" d="M99.62,126.07H24.21c-8.39,0-15.25-6.86-15.25-15.25V35.42c0-8.39,6.86-15.25,15.25-15.25h75.41
		c8.39,0,15.25,6.86,15.25,15.25v75.41C114.87,119.21,108.01,126.07,99.62,126.07"/>
	<polygon class="st1" points="150.24,99.66 146.28,111 145.05,99.66 139.1,99.66 134.87,111.07 133.98,99.66 127.49,99.66 
		130.22,119.2 137.05,119.2 141.15,107.45 142.45,119.2 149.35,119.2 156.93,99.66 	"/>
	<path class="st1" d="M173.19,100.55c-1.43-1.02-3.48-1.57-6.22-1.57c-2.94,0-5.19,0.55-6.76,1.64c-1.57,1.09-2.53,2.73-2.8,4.92
		h6.63c0-0.68,0.27-1.16,0.68-1.5c0.34-0.27,0.96-0.48,1.71-0.48c0.68,0,1.23,0.2,1.64,0.48c0.41,0.27,0.61,0.68,0.61,1.23
		c0,0.96-1.16,1.57-3.42,1.78c-0.41,0.07-0.75,0.07-0.96,0.07c-3.21,0.41-5.47,1.16-6.76,2.25c-1.3,1.09-1.98,2.73-1.98,4.99
		c0,1.64,0.55,3.01,1.57,3.96c1.09,1.02,2.46,1.5,4.24,1.5c1.09,0,2.12-0.2,3.14-0.61c1.02-0.41,2.05-1.02,3-1.84l0.2,1.84h6.76
		v-0.55c-0.2-0.27-0.34-0.55-0.41-0.82c-0.14-0.34-0.2-0.68-0.2-1.09c0-0.2,0.07-0.41,0.07-0.61c0-0.27,0.07-0.61,0.14-1.02
		l1.02-7.11c0.07-0.55,0.14-1.09,0.14-1.57c0.07-0.55,0.07-0.96,0.07-1.3C175.31,103.15,174.63,101.57,173.19,100.55 M166.98,113.94
		c-0.68,0.82-1.57,1.23-2.66,1.23c-0.55,0-0.96-0.14-1.3-0.41c-0.34-0.34-0.48-0.68-0.48-1.23c0-1.09,0.89-1.84,2.73-2.25
		c1.16-0.27,2.05-0.55,2.8-0.82C168,111.96,167.59,113.12,166.98,113.94"/>
	<path class="st1" d="M195.87,100.75c-1.02-1.09-2.46-1.64-4.23-1.64c-1.16,0-2.19,0.2-3.21,0.75c-0.27,0.14-0.48,0.27-0.68,0.48
		v0.07l-0.48,4.78c0.27-0.2,0.68-0.27,1.09-0.27c0.61,0,1.16,0.2,1.57,0.61c0.34,0.41,0.55,0.96,0.55,1.57v0.41
		c0,0.14,0,0.34-0.07,0.61l-1.37,11.07h6.83l1.37-11.27c0.07-0.48,0.14-0.96,0.2-1.37v-1.23
		C197.45,103.42,196.97,101.92,195.87,100.75 M179.75,99.66l-2.6,19.54h6.76l1.85-17.01h-0.07l0.34-2.53H179.75z"/>
	<path class="st1" d="M201.48,99.66l-2.66,19.54h6.63l1.84-17.01l0.14-1.02l0.2-1.5H201.48z M227.78,100.62
		c-1.02-1.09-2.39-1.57-4.1-1.57c-1.16,0-2.25,0.27-3.28,0.89c-1.02,0.55-1.98,1.43-2.87,2.66c-0.27-1.23-0.82-2.12-1.57-2.66
		c-0.82-0.61-1.78-0.89-3.01-0.89c-1.09,0-2.12,0.2-3.07,0.75c-0.21,0.14-0.41,0.2-0.61,0.41v0.2l-0.48,4.78
		c0.21-0.14,0.41-0.14,0.68-0.14c0.62,0,1.09,0.14,1.44,0.48c0.34,0.27,0.48,0.75,0.48,1.43v0.61c-0.07,0.2-0.07,0.41-0.07,0.61
		l-1.36,11h6.63l1.43-10.59c0.14-1.3,0.48-2.19,0.89-2.73c0.41-0.55,1.02-0.82,1.78-0.82c0.55,0,1.02,0.14,1.3,0.48
		c0.34,0.27,0.48,0.75,0.48,1.37v0.75c-0.07,0.2-0.07,0.41-0.07,0.61l-1.37,10.93h6.63l1.43-11.55c0.07-0.55,0.14-1.02,0.14-1.5
		c0.07-0.41,0.07-0.75,0.07-1.09C229.28,103.21,228.8,101.71,227.78,100.62"/>
	<path class="st1" d="M261.39,100.75c-1.02-1.09-2.46-1.64-4.24-1.64c-1.16,0-2.19,0.2-3.14,0.75c-0.27,0.14-0.55,0.27-0.82,0.55
		l-0.48,4.78c0.34-0.2,0.75-0.27,1.16-0.27c0.61,0,1.16,0.2,1.57,0.61c0.41,0.41,0.55,0.96,0.55,1.57v0.41c0,0.14,0,0.34-0.07,0.61
		l-1.37,11.07h6.83l1.43-11.27c0.07-0.48,0.07-0.96,0.14-1.37v-1.23C262.96,103.42,262.49,101.92,261.39,100.75 M245.27,99.66
		l-2.6,19.54h6.7l1.84-17.01l0.14-1.02l0.2-1.5H245.27z"/>
	<path class="st1" d="M279.43,99.66l-0.34,2.66c-0.68-1.16-1.5-1.98-2.39-2.53c-0.96-0.55-2.05-0.82-3.28-0.82
		c-2.46,0-4.44,1.09-6.01,3.28c-1.64,2.19-2.46,4.99-2.46,8.33c0,2.66,0.61,4.71,1.84,6.22c1.23,1.43,2.87,2.19,5.12,2.19
		c0.89,0,1.71-0.2,2.46-0.55c0.75-0.34,1.5-0.89,2.19-1.64c-0.2,2.25-0.55,3.76-1.09,4.65c-0.48,0.89-1.3,1.3-2.39,1.3
		c-0.55,0-0.96-0.07-1.3-0.34c-0.34-0.2-0.61-0.55-0.68-0.96h-6.7c0.07,1.78,0.82,3.21,2.32,4.17c1.44,1.02,3.48,1.5,6.15,1.5
		c1.78,0,3.35-0.2,4.58-0.68c1.3-0.41,2.39-1.09,3.21-1.98c0.68-0.68,1.16-1.64,1.57-2.8c0.41-1.16,0.75-2.73,0.96-4.65l2.19-17.35
		H279.43z M276.97,112.03c-0.61,0.89-1.43,1.37-2.46,1.37c-0.89,0-1.5-0.27-1.98-0.89c-0.48-0.61-0.75-1.43-0.75-2.46
		c0-1.64,0.27-2.94,0.89-3.96c0.55-0.96,1.3-1.43,2.26-1.43c0.95,0,1.64,0.34,2.18,0.96c0.48,0.61,0.75,1.5,0.75,2.66
		C277.86,109.84,277.51,111.14,276.97,112.03"/>
	<path class="st2" d="M240.26,90.85c1.23,1.23,1.23,3.23,0,4.46c-1.23,1.23-3.23,1.23-4.46,0c-1.23-1.23-1.23-3.23,0-4.46
		C237.03,89.62,239.03,89.62,240.26,90.85"/>
	<path class="st1" d="M235.65,119.13c-2.13,0.36-3.95-1.05-4.04-3.15c-0.02-0.4,0.02-0.83,0.13-1.21c0.01-0.07,0.03-0.15,0.06-0.24
		l3.98-13.62l0.05-0.13c0.21-0.64,0.86-1.13,1.57-1.13c0.69,0,1.22,0.49,1.28,1.13l0.02,0.12l0.63,13.79
		C239.45,116.78,237.79,118.76,235.65,119.13"/>
	<path class="st3" d="M37.78,115.13c-8.58,0-15.83-6.14-17.24-14.6c-0.32-1.96-0.35-3.78-0.08-5.43c0.02-0.4,0.1-0.81,0.17-1.14
		l9.52-55.48l0.17-0.68c0.73-3.42,3.92-5.95,7.59-5.95c3.64,0.01,6.81,2.55,7.54,6.04l0.13,0.46l9.43,56.36
		c1.65,9.46-4.76,18.52-14.3,20.19C39.74,115.05,38.75,115.13,37.78,115.13"/>
	<path class="st2" d="M37.91,33.64h0.01c2.82,0.01,5.23,2,5.78,4.62l0.14,0.48l9.41,56.26c1.5,8.6-4.3,16.63-12.84,18.13
		c-0.88,0.15-1.76,0.22-2.62,0.22c-7.52,0-14.19-5.4-15.47-13.11c-0.27-1.65-0.34-3.37-0.06-4.95c0-0.28,0.07-0.62,0.14-0.96
		l9.53-55.54l0.14-0.55C32.62,35.63,35.03,33.64,37.91,33.64 M37.93,30.05L37.93,30.05h-0.02c-4.48,0-8.4,3.09-9.34,7.36l-0.12,0.49
		l-0.03,0.13l-0.02,0.13l-9.52,55.49c-0.07,0.36-0.16,0.78-0.19,1.25c-0.29,1.81-0.25,3.8,0.1,5.91
		c1.55,9.34,9.55,16.11,19.01,16.11c1.07,0,2.15-0.09,3.21-0.27c10.54-1.85,17.6-11.84,15.78-22.28l-9.4-56.23l-0.03-0.2l-0.06-0.19
		l-0.1-0.37C46.22,33.13,42.36,30.06,37.93,30.05L37.93,30.05z"/>
	<path class="st3" d="M61.87,115.13c-8.58,0-15.83-6.14-17.24-14.6c-0.32-1.96-0.35-3.78-0.08-5.42c0.02-0.38,0.1-0.76,0.16-1.1
		l9.53-55.52l0.17-0.68c0.73-3.42,3.92-5.95,7.59-5.95c3.64,0.01,6.81,2.55,7.54,6.04l0.13,0.45L79.1,94.7
		c1.65,9.46-4.76,18.52-14.3,20.19C63.83,115.05,62.84,115.13,61.87,115.13"/>
	<path class="st2" d="M62,33.64h0.01c2.82,0.01,5.23,2,5.78,4.62l0.14,0.48l9.41,56.26c1.5,8.6-4.3,16.63-12.84,18.13
		c-0.88,0.15-1.76,0.22-2.62,0.22c-7.52,0-14.19-5.4-15.47-13.11c-0.27-1.65-0.34-3.37-0.06-4.95c0-0.28,0.07-0.62,0.14-0.96
		l9.53-55.54l0.14-0.55C56.71,35.63,59.11,33.64,62,33.64 M62.02,30.05L62.02,30.05H62c-4.48,0-8.4,3.09-9.34,7.36l-0.12,0.49
		l-0.03,0.13l-0.02,0.13l-9.52,55.49c-0.07,0.36-0.16,0.78-0.19,1.25c-0.29,1.81-0.25,3.8,0.1,5.91
		c1.55,9.34,9.55,16.11,19.01,16.11c1.07,0,2.15-0.09,3.21-0.27c10.54-1.85,17.6-11.84,15.78-22.28l-9.41-56.23l-0.03-0.2
		l-0.06-0.19l-0.11-0.37C70.31,33.13,66.45,30.06,62.02,30.05L62.02,30.05z"/>
	<path class="st3" d="M85.96,115.13c-8.58,0-15.83-6.14-17.24-14.6c-0.32-1.97-0.35-3.79-0.08-5.42c0.02-0.39,0.1-0.79,0.17-1.14
		l9.52-55.48l0.16-0.68c0.73-3.43,3.93-5.96,7.6-5.96c3.64,0.01,6.81,2.55,7.54,6.04l0.13,0.46l9.43,56.36
		c1.65,9.46-4.77,18.52-14.3,20.19C87.92,115.05,86.93,115.13,85.96,115.13"/>
	<path class="st2" d="M86.09,33.64h0.01c2.82,0.01,5.23,2,5.78,4.62l0.14,0.48l9.41,56.26c1.5,8.6-4.3,16.63-12.84,18.13
		c-0.88,0.15-1.76,0.22-2.62,0.22c-7.53,0-14.19-5.4-15.47-13.11c-0.27-1.65-0.34-3.37-0.06-4.95c0-0.28,0.07-0.62,0.14-0.96
		l9.53-55.54l0.14-0.55C80.8,35.63,83.2,33.64,86.09,33.64 M86.11,30.05L86.11,30.05h-0.01c-4.48,0-8.4,3.09-9.34,7.36l-0.12,0.49
		l-0.03,0.13l-0.02,0.13l-9.52,55.49c-0.07,0.36-0.16,0.78-0.19,1.25c-0.29,1.81-0.25,3.8,0.1,5.91
		c1.55,9.33,9.55,16.11,19.01,16.11c1.07,0,2.15-0.09,3.21-0.27c10.54-1.85,17.6-11.84,15.78-22.28l-9.4-56.23l-0.03-0.2l-0.06-0.19
		l-0.11-0.37C94.4,33.13,90.54,30.06,86.11,30.05L86.11,30.05z"/>
</g>
</svg>
