<svg id="图层_1" data-name="图层 1" xmlns="http://www.w3.org/2000/svg" viewBox="0 0 299.55 299.55"><defs><style>.cls-1{fill:#d70c18;}</style></defs><title>logo-small</title><path class="cls-1" d="M256.87.09H43.57A43.24,43.24,0,0,0,.45,43.21v213.3a43.25,43.25,0,0,0,43.12,43.13h213.3A43.26,43.26,0,0,0,300,256.51V43.21A43.25,43.25,0,0,0,256.87.09Zm5,217.73a48.51,48.51,0,0,1-.58,7.35,44,44,0,0,1-50.82,36.14,49.4,49.4,0,0,1-9.08-2.71,48.22,48.22,0,0,1-14.1-8.89c-.39-.39-.78-1-1.36-1.16a4.16,4.16,0,0,0-5.41.77l-.19.2a42.83,42.83,0,0,1-24,11.79,36.76,36.76,0,0,1-6.57.57,32.6,32.6,0,0,1-6.19-.57,43.78,43.78,0,0,1-25.12-12.37c-.19-.2-.19-.39-.38-.39a4.24,4.24,0,0,0-5.61,1,41.15,41.15,0,0,1-14.1,9.08,45.06,45.06,0,0,1-9.09,2.71A44,44,0,0,1,38.5,225.17a49.84,49.84,0,0,1-.58-7.35L37.73,55.31V54.15a16.91,16.91,0,0,1,14.11-16,17.26,17.26,0,0,1,17.39,8.12l1.93,5.6,36.71,106.09a4.06,4.06,0,0,0,7.73-1.55v-.19L133.19,52.41l.38-1.54v-.58a16.81,16.81,0,0,1,32.66,1l18,105.12v.2a4,4,0,0,0,7.74,1.35L228.45,51.83l.58-1.74.58-1.93V48a16.83,16.83,0,0,1,32.27,6.76Z" transform="translate(-0.45 -0.09)"/></svg>